#N canvas 129 24 772 848 10;
#X obj 1078 69 r trigger;
#X obj -64 549 *~;
#X obj -64 572 *~ 0.1;
#X obj -64 602 dac~;
#X obj -64 482 vline~;
#X obj -49 504 noise~;
#X msg -64 452 1 10 \, 0 200 10;
#X obj 1046 55 bng 15 250 50 0 empty empty empty 17 7 0 10 -262144
-1 -1;
#X obj 1218 70 r clear;
#X obj -64 423 spigot;
#X obj -59 72 r activateNoise;
#X obj 1181 56 bng 15 250 50 0 empty empty empty 17 7 0 10 -262144
-1 -1;
#X msg -59 181 1;
#X obj 336 697 loadbang;
#X obj 336 830 soundfiler;
#X floatatom 336 856 8 0 0 0 - - -;
#X obj 274 623 hip~ 5;
#X obj 274 698 dac~;
#X obj 274 524 spigot;
#X msg 160 180 1;
#X msg 293 571 set \$1;
#X obj 160 73 r activateDrum;
#X obj 274 596 tabplay~;
#X obj 265 72 r selectDrum;
#X obj 317 505 r offSwitch;
#X obj -11 377 r offSwitch;
#X obj 1196 148 s offSwitch;
#X msg 1196 99 0;
#X obj 1077 100 s tickBang;
#X obj -112 392 r tickBang;
#X obj 233 493 r tickBang;
#X obj 293 550 r drumSymbol;
#X obj 265 341 s drumSymbol;
#X obj -59 341 s noiseOn;
#X obj 160 342 s drumOn;
#X obj 6 406 r noiseOn;
#X obj 307 485 r drumOn;
#X obj -254 72 r mute;
#X obj -253 340 s audioStream;
#X msg -244 181 0;
#X msg -212 181 1;
#X obj -49 526 *~;
#X obj 36 509 r audioStream;
#X obj 340 653 r audioStream;
#X obj -253 366 r audioStream;
#X floatatom -253 432 5 0 0 0 - - -;
#X text -212 433 <- is muted;
#X obj -253 388 sel 0;
#X msg -223 409 0;
#X msg -253 409 1;
#X floatatom 912 383 5 0 0 0 - - -;
#X obj 912 360 + 48;
#X obj 912 339 hradio 15 1 0 12 empty empty midi_note 0 -8 0 10 -262144
-1 -1 2;
#X obj 336 721 bng 15 250 50 0 empty empty empty 17 7 0 10 -262144
-1 -1;
#X text 356 721 tap to reload;
#X obj 974 421 hradio 15 1 0 4 empty empty channel 0 -8 0 10 -262144
-1 -1 1;
#X msg 811 297 osc;
#X msg 842 297 phasor;
#X obj 1208 125 s blockInput;
#X obj 495 71 r audioStop;
#X obj 508 178 hradio 15 1 0 4 empty empty channel 0 -8 0 10 -262144
-1 -1 0;
#X msg 495 341 \; rampDown-\$1 1;
#X obj 274 670 *~ 1;
#X obj 832 712 dac~;
#X obj 832 683 *~ 1;
#X msg 336 744 read -resize drum1.wav sample_drum1;
#X msg 342 765 read -resize drum2.wav sample_drum2;
#X msg 345 783 read -resize drum3.wav sample_drum3;
#X msg 352 803 read -resize drum4.wav sample_drum4;
#X msg 296 175 symbol sample_drum1;
#X msg 297 195 symbol sample_drum2;
#X msg 296 215 symbol sample_drum3;
#X msg 296 235 symbol sample_drum4;
#X obj 265 380 table sample_drum1 22050;
#X obj 265 400 table sample_drum2 22050;
#X obj 265 420 table sample_drum3 22050;
#X obj 265 440 table sample_drum4 22050;
#X msg 756 -53 \; pd dsp 0;
#X msg 690 -54 \; pd dsp 1;
#X msg 751 -14 \; debug 0;
#X msg 690 -14 \; debug 1;
#X text 524 205 stop all channels;
#N canvas 0 22 450 300 debug 0;
#X obj 76 39 spigot;
#X obj 16 11 inlet;
#X obj 76 76 print \$1;
#X obj 109 10 r debug;
#X connect 0 0 2 0;
#X connect 1 0 0 0;
#X connect 3 0 0 1;
#X restore 845 -44 pd debug;
#X text 810 277 choose synth (bang set note);
#X msg 524 222 0 \, 1 \, 2 \, 3;
#X obj 765 62 r synthEvent;
#X obj 847 448 pack f f f;
#X obj 847 480 s synthEvent;
#X obj 762 112 route 0 1;
#X msg 811 318 1;
#X msg 842 318 0;
#X obj 830 135 print synth type not recognized;
#X msg 737 176 \; phasorSetNote-\$2 \$1;
#X obj 790 87 print incoming synth event;
#X obj 743 525 pf-phasorSynth 0;
#X obj 743 550 pf-phasorSynth 1;
#X obj 743 575 pf-phasorSynth 2;
#X obj 743 600 pf-phasorSynth 3;
#X obj 885 525 pf-oscSynth 0;
#X obj 885 550 pf-oscSynth 1;
#X obj 885 575 pf-oscSynth 2;
#X obj 885 600 pf-oscSynth 3;
#X msg 884 181 \; oscSetNote-\$2 \$1;
#X connect 0 0 28 0;
#X connect 1 0 2 0;
#X connect 2 0 3 0;
#X connect 2 0 3 1;
#X connect 4 0 1 0;
#X connect 5 0 41 0;
#X connect 6 0 4 0;
#X connect 7 0 28 0;
#X connect 8 0 27 0;
#X connect 9 0 6 0;
#X connect 10 0 12 0;
#X connect 11 0 27 0;
#X connect 12 0 33 0;
#X connect 13 0 53 0;
#X connect 14 0 15 0;
#X connect 16 0 62 0;
#X connect 18 0 22 0;
#X connect 19 0 34 0;
#X connect 20 0 22 0;
#X connect 21 0 19 0;
#X connect 22 0 16 0;
#X connect 23 0 32 0;
#X connect 24 0 18 1;
#X connect 25 0 9 1;
#X connect 27 0 26 0;
#X connect 27 0 58 0;
#X connect 29 0 9 0;
#X connect 30 0 18 0;
#X connect 31 0 20 0;
#X connect 35 0 9 1;
#X connect 36 0 18 1;
#X connect 37 0 38 0;
#X connect 39 0 38 0;
#X connect 40 0 38 0;
#X connect 41 0 1 1;
#X connect 42 0 41 1;
#X connect 43 0 62 1;
#X connect 44 0 47 0;
#X connect 47 0 49 0;
#X connect 47 1 48 0;
#X connect 48 0 45 0;
#X connect 49 0 45 0;
#X connect 50 0 86 1;
#X connect 51 0 50 0;
#X connect 52 0 51 0;
#X connect 53 0 66 0;
#X connect 53 0 67 0;
#X connect 53 0 68 0;
#X connect 53 0 65 0;
#X connect 55 0 86 2;
#X connect 56 0 89 0;
#X connect 57 0 90 0;
#X connect 59 0 61 0;
#X connect 60 0 61 0;
#X connect 62 0 17 0;
#X connect 62 0 17 1;
#X connect 64 0 63 0;
#X connect 64 0 63 1;
#X connect 65 0 14 0;
#X connect 66 0 14 0;
#X connect 67 0 14 0;
#X connect 68 0 14 0;
#X connect 69 0 32 0;
#X connect 70 0 32 0;
#X connect 71 0 32 0;
#X connect 72 0 32 0;
#X connect 84 0 61 0;
#X connect 85 0 88 0;
#X connect 85 0 93 0;
#X connect 86 0 87 0;
#X connect 88 0 92 0;
#X connect 88 1 102 0;
#X connect 88 2 91 0;
#X connect 89 0 86 0;
#X connect 90 0 86 0;
#X connect 94 0 64 0;
#X connect 95 0 64 0;
#X connect 96 0 64 0;
#X connect 97 0 64 0;
#X connect 98 0 64 0;
#X connect 99 0 64 0;
#X connect 100 0 64 0;
#X connect 101 0 64 0;
