#N canvas 65 272 1052 614 10;
#X obj 1078 69 r trigger;
#X obj 306 329 *~;
#X obj 306 352 *~ 0.1;
#X obj 306 382 dac~;
#X obj 306 262 vline~;
#X obj 321 284 noise~;
#X msg 306 232 1 10 \, 0 200 10;
#X obj 1046 55 bng 15 250 50 0 empty empty empty 17 7 0 10 -262144
-1 -1;
#X obj 1218 70 r clear;
#X obj 306 203 spigot;
#X obj 311 72 r activateNoise;
#X obj 1181 56 bng 15 250 50 0 empty empty empty 17 7 0 10 -262144
-1 -1;
#X msg 311 92 1;
#X obj 359 157 r offSwitch;
#X obj 1196 148 s offSwitch;
#X msg 1196 99 0;
#X obj 1077 100 s tickBang;
#X obj 258 172 r tickBang;
#X obj 311 112 s noiseOn;
#X obj 376 186 r noiseOn;
#X obj 116 72 r mute;
#X obj 117 340 s audioStream;
#X msg 126 181 0;
#X msg 158 181 1;
#X obj 321 306 *~;
#X obj 406 289 r audioStream;
#X obj 117 366 r audioStream;
#X floatatom 117 432 5 0 0 0 - - -;
#X text 158 433 <- is muted;
#X obj 117 388 sel 0;
#X msg 147 409 0;
#X msg 117 409 1;
#X floatatom 912 383 5 0 0 0 - - -;
#X obj 912 360 + 48;
#X obj 912 339 hradio 15 1 0 12 empty empty midi_note 0 -8 0 10 -262144
-1 -1 0;
#X obj 974 421 hradio 15 1 0 4 empty empty channel 0 -8 0 10 -262144
-1 -1 0;
#X msg 810 297 osc;
#X msg 841 297 phasor;
#X obj 1208 125 s blockInput;
#X obj 495 71 r audioStop;
#X obj 508 118 hradio 15 1 0 4 empty empty channel 0 -8 0 10 -262144
-1 -1 0;
#X msg 495 201 \; rampDown-\$1 1;
#X obj 831 712 dac~;
#X obj 831 683 *~ 1;
#X msg 184 -11 \; pd dsp 0;
#X msg 118 -12 \; pd dsp 1;
#X msg 179 28 \; debug 0;
#X msg 118 28 \; debug 1;
#X text 524 145 stop all channels;
#N canvas 0 22 450 300 debug 0;
#X obj 76 39 spigot;
#X obj 16 11 inlet;
#X obj 76 76 print \$1;
#X obj 109 10 r debug;
#X connect 0 0 2 0;
#X connect 1 0 0 0;
#X connect 3 0 0 1;
#X restore 273 -2 pd debug;
#X text 809 277 choose synth (bang set note);
#X msg 524 162 0 \, 1 \, 2 \, 3;
#X obj 765 62 r synthEvent;
#X obj 846 448 pack f f f;
#X obj 846 480 s synthEvent;
#X obj 762 112 route 0 1;
#X msg 810 318 1;
#X msg 841 318 0;
#X obj 830 135 print synth type not recognized;
#X msg 737 176 \; phasorSetNote-\$2 \$1;
#X obj 790 87 print incoming synth event;
#X obj 743 525 pf-phasorSynth 0;
#X obj 742 550 pf-phasorSynth 1;
#X obj 742 575 pf-phasorSynth 2;
#X obj 742 600 pf-phasorSynth 3;
#X obj 885 525 pf-oscSynth 0;
#X obj 885 550 pf-oscSynth 1;
#X obj 885 575 pf-oscSynth 2;
#X obj 885 600 pf-oscSynth 3;
#X msg 884 181 \; oscSetNote-\$2 \$1;
#X obj 148 583 t b b;
#X obj 148 563 bng 15 250 50 0 empty empty empty 17 7 0 10 -262144
-1 -1;
#X obj 147 769 pf-sample 1;
#X obj 147 662 pack s s;
#X msg 192 637 symbol _1;
#X msg 147 686 \; loadSample\$2 list \$1 \$2;
#X msg 318 667 \; stageSample_1 1;
#X text 341 609 <- define sample to be loaded;
#X text 319 637 <- define table to store sample in;
#X text 427 672 <- bang to test staging a sample;
#X text 184 562 < - bang to test loading and storing a sample;
#X text 146 744 sample players;
#X obj 147 789 pf-sample 2;
#X obj 147 809 pf-sample 3;
#X obj 147 829 pf-sample 4;
#X obj 147 849 pf-sample 5;
#X obj 237 769 pf-sample 6;
#X obj 237 789 pf-sample 7;
#X obj 237 809 pf-sample 8;
#X obj 237 829 pf-sample 9;
#X obj 237 849 pf-sample 10;
#X obj 327 769 pf-sample 11;
#X obj 327 789 pf-sample 12;
#X obj 327 809 pf-sample 13;
#X obj 327 829 pf-sample 14;
#X obj 327 849 pf-sample 15;
#X obj 417 769 pf-sample 16;
#X obj 417 789 pf-sample 17;
#X obj 417 809 pf-sample 18;
#X obj 417 829 pf-sample 19;
#X obj 417 849 pf-sample 20;
#X msg 192 608 symbol pfl-piano-1.aif;
#X connect 0 0 16 0;
#X connect 1 0 2 0;
#X connect 2 0 3 0;
#X connect 2 0 3 1;
#X connect 4 0 1 0;
#X connect 5 0 24 0;
#X connect 6 0 4 0;
#X connect 7 0 16 0;
#X connect 8 0 15 0;
#X connect 9 0 6 0;
#X connect 10 0 12 0;
#X connect 11 0 15 0;
#X connect 12 0 18 0;
#X connect 13 0 9 1;
#X connect 15 0 14 0;
#X connect 15 0 38 0;
#X connect 17 0 9 0;
#X connect 19 0 9 1;
#X connect 20 0 21 0;
#X connect 22 0 21 0;
#X connect 23 0 21 0;
#X connect 24 0 1 1;
#X connect 25 0 24 1;
#X connect 26 0 29 0;
#X connect 29 0 31 0;
#X connect 29 1 30 0;
#X connect 30 0 27 0;
#X connect 31 0 27 0;
#X connect 32 0 53 1;
#X connect 33 0 32 0;
#X connect 34 0 33 0;
#X connect 35 0 53 2;
#X connect 36 0 56 0;
#X connect 37 0 57 0;
#X connect 39 0 41 0;
#X connect 40 0 41 0;
#X connect 43 0 42 0;
#X connect 43 0 42 1;
#X connect 51 0 41 0;
#X connect 52 0 55 0;
#X connect 52 0 60 0;
#X connect 53 0 54 0;
#X connect 55 0 59 0;
#X connect 55 1 69 0;
#X connect 55 2 58 0;
#X connect 56 0 53 0;
#X connect 57 0 53 0;
#X connect 61 0 43 0;
#X connect 62 0 43 0;
#X connect 63 0 43 0;
#X connect 64 0 43 0;
#X connect 65 0 43 0;
#X connect 66 0 43 0;
#X connect 67 0 43 0;
#X connect 68 0 43 0;
#X connect 70 0 101 0;
#X connect 70 1 74 0;
#X connect 71 0 70 0;
#X connect 73 0 75 0;
#X connect 74 0 73 1;
#X connect 101 0 73 0;
