#N canvas 161 24 1436 852 10;
#X obj 1098 69 r trigger;
#X obj 734 912 *~;
#X obj 734 935 *~ 0.1;
#X obj 734 965 dac~;
#X obj 734 845 vline~;
#X obj 749 867 noise~;
#X msg 734 815 1 10 \, 0 200 10;
#X obj 1076 169 bng 15 250 50 0 empty empty empty 17 7 0 10 -262144
-1 -1;
#X obj 1248 70 r clear;
#X obj 734 786 spigot;
#X obj 607 800 r activateNoise;
#X obj 590 801 bng 15 250 50 0 empty empty empty 17 7 0 10 -262144
-1 -1;
#X obj 1228 168 bng 15 250 50 0 empty empty empty 17 7 0 10 -262144
-1 -1;
#X msg 590 827 1;
#X obj 135 854 loadbang;
#X obj 135 987 soundfiler;
#X floatatom 135 1013 8 0 0 0 - - -;
#X obj -80 586 bng 15 250 50 0 empty empty empty 17 7 0 10 -262144
-1 -1;
#X obj 58 676 hip~ 5;
#X obj 58 751 dac~;
#X obj 58 577 spigot;
#X msg -61 613 1;
#X msg 77 624 set \$1;
#X obj -61 586 r activateDrum;
#X obj 58 649 tabplay~;
#X obj 213 526 r selectDrum;
#X obj 101 558 r offSwitch;
#X obj 787 740 r offSwitch;
#X obj 1248 391 s offSwitch;
#X msg 1248 342 0;
#X obj 1098 343 s tickBang;
#X obj 686 755 r tickBang;
#X obj 17 546 r tickBang;
#X obj 77 603 r drumSymbol;
#X obj 213 633 s drumSymbol;
#X obj 590 855 s noiseOn;
#X obj -61 638 s drumOn;
#X obj 804 769 r noiseOn;
#X obj 91 538 r drumOn;
#X obj 412 773 r mute;
#X obj 413 827 s audioStream;
#X msg 357 843 0;
#X msg 384 773 1;
#X obj 749 889 *~;
#X obj 834 872 r audioStream;
#X obj 124 706 r audioStream;
#X obj 413 853 r audioStream;
#X floatatom 413 919 5 0 0 0 - - -;
#X text 454 920 <- is muted;
#X obj 413 875 sel 0;
#X msg 443 896 0;
#X msg 413 896 1;
#X floatatom 718 367 5 0 0 0 - - -;
#X obj 718 344 + 48;
#X obj 770 210 hradio 15 1 0 12 empty empty midi_note 0 -8 0 10 -262144
-1 -1 0;
#X text 699 722 noise machine;
#X text 35 516 sample player;
#X obj 135 878 bng 15 250 50 0 empty empty empty 17 7 0 10 -262144
-1 -1;
#X text 155 878 tap to reload;
#X floatatom 923 391 5 0 0 0 - - -;
#X floatatom 968 391 5 0 0 0 - - -;
#X text 972 373 channel;
#X text 930 372 midi;
#X msg 923 445 \; setNote-\$2 \$1;
#X obj 871 343 unpack s f f;
#X obj 871 389 print;
#X text 883 371 type;
#X obj 923 412 pack f f;
#X obj 777 241 hradio 15 1 0 10 empty empty channel 0 -8 0 10 -262144
-1 -1 0;
#X obj 700 394 pack s f f;
#X msg 635 366 osc;
#X msg 664 366 phasor;
#X obj 1260 368 s blockInput;
#X obj 171 403 r audioStop;
#X obj 871 70 r prepareSynth;
#X msg 700 415 \; prepareSynth \$1 \$2 \$3;
#X obj 184 440 hradio 15 1 0 10 empty empty channel 0 -8 0 10 -262144
-1 -1 0;
#X msg 171 463 \; rampDown-\$1 1;
#X obj 764 179 hradio 15 1 0 2 empty empty synth_type 0 -8 0 10 -262144
-1 -1 0;
#X obj 635 343 sel 0 1;
#X obj 58 723 *~ 1;
#X obj 924 621 dac~;
#X obj 844 503 pf-synth 0;
#X obj 844 523 pf-synth 1;
#X obj 844 543 pf-synth 2;
#X obj 844 563 pf-synth 3;
#X obj 924 503 pf-synth 4;
#X obj 924 523 pf-synth 5;
#X obj 924 543 pf-synth 6;
#X obj 924 563 pf-synth 7;
#X obj 1004 503 pf-synth 8;
#X obj 924 592 *~ 1;
#X msg 135 901 read -resize drum1.wav sample_drum1;
#X msg 141 922 read -resize drum2.wav sample_drum2;
#X msg 144 940 read -resize drum3.wav sample_drum3;
#X msg 151 960 read -resize drum4.wav sample_drum4;
#X msg 244 549 symbol sample_drum1;
#X msg 245 569 symbol sample_drum2;
#X msg 244 589 symbol sample_drum3;
#X msg 244 609 symbol sample_drum4;
#X obj -144 477 table sample_drum1 22050;
#X obj -144 497 table sample_drum2 22050;
#X obj -144 517 table sample_drum3 22050;
#X obj -144 537 table sample_drum4 22050;
#X text 1370 69 <--- PttrnFlow API;
#X text 1368 165 <--- Manual Interface;
#X text 1368 334 <--- Sound Engine;
#X text 379 282 ______________________________________________;
#X text 669 282 ______________________________________________;
#X text 959 282 ______________________________________________;
#X text 1249 282 ______________________________________________;
#X text 89 282 ______________________________________________;
#X text 379 121 ______________________________________________;
#X text 669 121 ______________________________________________;
#X text 959 121 ______________________________________________;
#X text 1249 121 ______________________________________________;
#X text 89 121 ______________________________________________;
#X msg 1319 -31 \; pd dsp 0;
#X msg 1320 -53 \; pd dsp 1;
#X connect 0 0 30 0;
#X connect 1 0 2 0;
#X connect 2 0 3 0;
#X connect 2 0 3 1;
#X connect 4 0 1 0;
#X connect 5 0 43 0;
#X connect 6 0 4 0;
#X connect 7 0 30 0;
#X connect 8 0 29 0;
#X connect 9 0 6 0;
#X connect 10 0 13 0;
#X connect 11 0 13 0;
#X connect 12 0 29 0;
#X connect 13 0 35 0;
#X connect 14 0 57 0;
#X connect 15 0 16 0;
#X connect 17 0 21 0;
#X connect 18 0 80 0;
#X connect 20 0 24 0;
#X connect 21 0 36 0;
#X connect 22 0 24 0;
#X connect 23 0 21 0;
#X connect 24 0 18 0;
#X connect 25 0 34 0;
#X connect 26 0 20 1;
#X connect 27 0 9 1;
#X connect 29 0 28 0;
#X connect 29 0 72 0;
#X connect 31 0 9 0;
#X connect 32 0 20 0;
#X connect 33 0 22 0;
#X connect 37 0 9 1;
#X connect 38 0 20 1;
#X connect 39 0 40 0;
#X connect 41 0 40 0;
#X connect 42 0 40 0;
#X connect 43 0 1 1;
#X connect 44 0 43 1;
#X connect 45 0 80 1;
#X connect 46 0 49 0;
#X connect 49 0 51 0;
#X connect 49 1 50 0;
#X connect 50 0 47 0;
#X connect 51 0 47 0;
#X connect 52 0 69 1;
#X connect 53 0 52 0;
#X connect 54 0 53 0;
#X connect 57 0 93 0;
#X connect 57 0 94 0;
#X connect 57 0 95 0;
#X connect 57 0 92 0;
#X connect 59 0 67 0;
#X connect 60 0 67 1;
#X connect 64 0 65 0;
#X connect 64 1 59 0;
#X connect 64 2 60 0;
#X connect 67 0 63 0;
#X connect 68 0 69 2;
#X connect 69 0 75 0;
#X connect 70 0 69 0;
#X connect 71 0 69 0;
#X connect 73 0 77 0;
#X connect 74 0 64 0;
#X connect 76 0 77 0;
#X connect 78 0 79 0;
#X connect 79 0 70 0;
#X connect 79 1 71 0;
#X connect 80 0 19 0;
#X connect 80 0 19 1;
#X connect 82 0 91 0;
#X connect 83 0 91 0;
#X connect 84 0 91 0;
#X connect 85 0 91 0;
#X connect 86 0 91 0;
#X connect 87 0 91 0;
#X connect 88 0 91 0;
#X connect 89 0 91 0;
#X connect 90 0 91 0;
#X connect 91 0 81 0;
#X connect 91 0 81 1;
#X connect 92 0 15 0;
#X connect 93 0 15 0;
#X connect 94 0 15 0;
#X connect 95 0 15 0;
#X connect 96 0 34 0;
#X connect 97 0 34 0;
#X connect 98 0 34 0;
#X connect 99 0 34 0;
