#N canvas 223 140 1057 825 10;
#X obj 351 -35 r trigger;
#X obj 270 617 *~;
#X obj 270 640 *~ 0.1;
#X obj 270 670 dac~;
#X obj 270 550 vline~;
#X obj 285 572 noise~;
#X msg 270 520 1 10 \, 0 200 10;
#X obj 334 -34 bng 15 250 50 0 empty empty empty 17 7 0 10 -262144
-1 -1;
#X obj 471 -46 r clear;
#X obj 270 491 spigot;
#X obj 143 505 r activateNoise;
#X obj 126 506 bng 15 250 50 0 empty empty empty 17 7 0 10 -262144
-1 -1;
#X obj 454 -46 bng 15 250 50 0 empty empty empty 17 7 0 10 -262144
-1 -1;
#X msg 126 532 1;
#X obj 25 -41 loadbang;
#X obj 25 92 soundfiler;
#X floatatom 25 118 8 0 0 0 - - -;
#X obj 538 536 bng 15 250 50 0 empty empty empty 17 7 0 10 -262144
-1 -1;
#X obj 676 626 hip~ 5;
#X obj 676 701 dac~;
#X obj 676 527 spigot;
#X msg 557 563 1;
#X msg 695 574 set \$1;
#X obj 557 536 r activateDrum;
#X obj 676 599 tabplay~;
#X msg 862 499 symbol d1;
#X msg 862 519 symbol d2;
#X msg 25 6 read -resize d1.wav d1;
#X msg 31 25 read -resize d2.wav d2;
#X obj 831 476 r selectDrum;
#X obj 719 508 r offSwitch;
#X obj 323 445 r offSwitch;
#X obj 471 30 s offSwitch;
#X msg 471 -19 0;
#X obj 351 -10 s tickBang;
#X obj 222 460 r tickBang;
#X obj 635 496 r tickBang;
#X obj 695 553 r drumSymbol;
#X obj 831 583 s drumSymbol;
#X obj 136 560 s noiseOn;
#X obj 557 588 s drumOn;
#X obj 340 474 r noiseOn;
#X obj 709 488 r drumOn;
#X msg 36 45 read -resize d3.wav d3;
#X msg 41 65 read -resize d4.wav d4;
#X msg 862 539 symbol d3;
#X msg 862 559 symbol d4;
#X obj 251 -42 r mute;
#X obj 252 12 s audioStream;
#X msg 196 -42 0;
#X msg 223 -42 1;
#X obj 285 594 *~;
#X obj 370 577 r audioStream;
#X obj 676 673 *~;
#X obj 742 656 r audioStream;
#X obj 252 38 r audioStream;
#X floatatom 252 104 5 0 0 0 - - -;
#X text 293 105 <- is muted;
#X obj 252 60 sel 0;
#X msg 282 81 0;
#X msg 252 81 1;
#X obj 90 282 r graphValue;
#X obj 90 257 s graphValue;
#X floatatom 90 234 10 0 0 0 - - -;
#X floatatom 90 303 5 0 0 0 - - -;
#X obj 173 282 r readFromArray;
#X floatatom 90 355 5 0 0 0 - - -;
#X obj 173 258 s readFromArray;
#X obj 280 299 print;
#X msg 173 303 set \$1;
#X msg 173 234 symbol d3;
#X obj 90 333 tabread;
#X floatatom 586 195 5 0 0 0 - - -;
#X obj 586 172 + 48;
#X obj 586 151 hradio 15 1 0 12 empty empty midi_note 0 -8 0 10 -262144
-1 -1 0;
#X text 90 195 really don't need this part because we can load in arrays
from libpd;
#X text 224 432 noise machine;
#X text 653 466 sample player;
#X obj -14 233 table d1 22050;
#X obj -14 253 table d2 22050;
#X obj -14 273 table d3 22050;
#X obj -14 293 table d4 22050;
#X obj 25 -17 bng 15 250 50 0 empty empty empty 17 7 0 10 -262144 -1
-1;
#X text 45 -17 tap to reload;
#X floatatom 759 314 5 0 0 0 - - -;
#X floatatom 804 314 5 0 0 0 - - -;
#X text 808 296 channel;
#X text 766 296 midi;
#X msg 759 385 \; setNote-\$2 \$1;
#X obj 724 266 unpack s f f;
#X obj 707 313 print;
#X text 719 295 type;
#X obj 759 346 pack f f;
#X obj 634 183 hradio 15 1 0 10 empty empty channel 0 -8 0 10 -262144
-1 -1 0;
#X obj 558 217 pack s f f;
#X msg 495 171 osc;
#X msg 528 171 phasor;
#X obj 483 7 s blockInput;
#X obj 530 303 pf-synth 0;
#X obj 626 -26 r audioStop;
#X obj 606 -26 bng 15 250 50 0 empty empty empty 17 7 0 10 -262144
-1 -1;
#X obj 724 236 r prepareSynth;
#X msg 558 248 \; prepareSynth \$1 \$2 \$3;
#X obj 711 -9 hradio 15 1 0 10 empty empty channel 0 -8 0 10 -262144
-1 -1 0;
#X msg 626 15 \; rampDown-\$1 1;
#X obj 530 328 pf-synth 1;
#X obj 530 353 pf-synth 2;
#X obj 530 378 pf-synth 3;
#X obj 530 403 pf-synth 4;
#X obj 606 303 pf-synth 5;
#X obj 606 328 pf-synth 6;
#X obj 606 353 pf-synth 7;
#X obj 606 378 pf-synth 8;
#X obj 606 403 pf-synth 9;
#X obj 517 123 hradio 15 1 0 2 empty empty synth_type 0 -8 0 10 -262144
-1 -1 0;
#X obj 495 146 sel 0 1;
#X obj 492 108 bng 15 250 50 0 empty empty empty 17 7 0 10 -262144
-1 -1;
#X connect 0 0 34 0;
#X connect 1 0 2 0;
#X connect 2 0 3 0;
#X connect 2 0 3 1;
#X connect 4 0 1 0;
#X connect 5 0 51 0;
#X connect 6 0 4 0;
#X connect 7 0 34 0;
#X connect 8 0 33 0;
#X connect 9 0 6 0;
#X connect 10 0 13 0;
#X connect 11 0 13 0;
#X connect 12 0 33 0;
#X connect 13 0 39 0;
#X connect 14 0 82 0;
#X connect 15 0 16 0;
#X connect 17 0 21 0;
#X connect 18 0 53 0;
#X connect 20 0 24 0;
#X connect 21 0 40 0;
#X connect 22 0 24 0;
#X connect 23 0 21 0;
#X connect 24 0 18 0;
#X connect 25 0 38 0;
#X connect 26 0 38 0;
#X connect 27 0 15 0;
#X connect 28 0 15 0;
#X connect 29 0 38 0;
#X connect 30 0 20 1;
#X connect 31 0 9 1;
#X connect 33 0 32 0;
#X connect 33 0 97 0;
#X connect 35 0 9 0;
#X connect 36 0 20 0;
#X connect 37 0 22 0;
#X connect 41 0 9 1;
#X connect 42 0 20 1;
#X connect 43 0 15 0;
#X connect 44 0 15 0;
#X connect 45 0 38 0;
#X connect 46 0 38 0;
#X connect 47 0 48 0;
#X connect 49 0 48 0;
#X connect 50 0 48 0;
#X connect 51 0 1 1;
#X connect 52 0 51 1;
#X connect 53 0 19 0;
#X connect 53 0 19 1;
#X connect 54 0 53 1;
#X connect 55 0 58 0;
#X connect 58 0 60 0;
#X connect 58 1 59 0;
#X connect 59 0 56 0;
#X connect 60 0 56 0;
#X connect 61 0 64 0;
#X connect 63 0 62 0;
#X connect 64 0 71 0;
#X connect 65 0 69 0;
#X connect 65 0 68 0;
#X connect 69 0 71 0;
#X connect 70 0 67 0;
#X connect 71 0 66 0;
#X connect 72 0 94 1;
#X connect 73 0 72 0;
#X connect 74 0 73 0;
#X connect 82 0 27 0;
#X connect 82 0 28 0;
#X connect 82 0 43 0;
#X connect 82 0 44 0;
#X connect 84 0 92 0;
#X connect 85 0 92 1;
#X connect 89 0 90 0;
#X connect 89 1 84 0;
#X connect 89 2 85 0;
#X connect 92 0 88 0;
#X connect 93 0 94 2;
#X connect 94 0 102 0;
#X connect 95 0 94 0;
#X connect 96 0 94 0;
#X connect 99 0 104 0;
#X connect 100 0 104 0;
#X connect 101 0 89 0;
#X connect 103 0 104 0;
#X connect 114 0 115 0;
#X connect 115 0 95 0;
#X connect 115 1 96 0;
#X connect 116 0 114 0;
