#N canvas 808 22 617 827 10;
#X obj 294 226 mtof;
#X obj 371 554 osc~ 220;
#X floatatom 319 250 5 0 0 0 - - -;
#X obj 371 460 line;
#X obj 381 364 float;
#X obj 381 389 t f b;
#X obj 154 594 *~;
#X obj 113 436 line~;
#X obj 123 231 sel 0 1;
#X obj 113 340 float;
#X obj 119 366 t b f;
#X obj 123 185 float;
#X floatatom 152 207 5 0 0 0 - - -;
#X msg 117 -28 0;
#X msg 156 -26 1;
#X msg 198 -17 2;
#X obj 87 10 float;
#X obj 87 32 sel 0 1 2;
#X obj 348 -96 r rampDown-\$1;
#X obj 35 -112 r tickBang;
#X obj 244 -124 r setNote-\$1;
#X obj 135 -124 r blockInput;
#X floatatom 392 486 5 0 0 0 - - -;
#X floatatom 4 439 5 0 0 0 - - -;
#X obj 154 647 outlet~;
#X obj 154 620 *~ 0.2;
#X obj 392 505 ftom;
#X floatatom 392 527 5 0 0 0 - - -;
#X text -20 380 ramp down;
#X text 136 203 comment;
#X text 427 363 next note (gliss);
#X text 154 342 next note (ramping up);
#X text 20 57 block input stops flow here;
#X text 307 202 comment;
#X text 104 153 input either goes to ramping \, or to changing (gliss)
;
#X obj 413 43 line;
#X msg 462 -25 1000;
#X floatatom 458 104 5 0 0 0 - - -;
#X msg 329 -24 1;
#X msg 360 -35 2;
#X msg 378 -9 3;
#X msg 401 -37 4;
#X msg 4 397 0 100;
#X msg 113 395 1 30;
#X msg 420 424 150;
#X connect 0 0 2 0;
#X connect 0 0 4 1;
#X connect 0 0 9 1;
#X connect 1 0 6 1;
#X connect 3 0 1 0;
#X connect 3 0 22 0;
#X connect 4 0 5 0;
#X connect 5 0 3 0;
#X connect 5 1 44 0;
#X connect 6 0 25 0;
#X connect 7 0 6 0;
#X connect 8 0 9 0;
#X connect 8 1 4 0;
#X connect 9 0 10 0;
#X connect 10 0 43 0;
#X connect 10 1 3 0;
#X connect 11 0 12 0;
#X connect 11 0 8 0;
#X connect 13 0 16 1;
#X connect 14 0 16 1;
#X connect 15 0 16 1;
#X connect 16 0 17 0;
#X connect 17 1 11 0;
#X connect 17 2 42 0;
#X connect 18 0 15 0;
#X connect 19 0 16 0;
#X connect 20 0 14 0;
#X connect 20 0 0 0;
#X connect 21 0 13 0;
#X connect 22 0 26 0;
#X connect 23 0 11 1;
#X connect 25 0 24 0;
#X connect 26 0 27 0;
#X connect 35 0 37 0;
#X connect 36 0 35 1;
#X connect 38 0 35 0;
#X connect 39 0 35 0;
#X connect 40 0 35 0;
#X connect 41 0 35 0;
#X connect 42 0 7 0;
#X connect 42 0 23 0;
#X connect 43 0 7 0;
#X connect 43 0 23 0;
#X connect 44 0 3 1;
