#N canvas 776 22 617 827 10;
#X obj 294 226 mtof;
#X obj 269 579 osc~ 220;
#X floatatom 319 250 5 0 0 0 - - -;
#X obj 371 460 line;
#X obj 381 364 float;
#X obj 381 389 t f b;
#X obj 154 594 *~;
#X obj 113 436 line~;
#X obj 123 231 sel 0 1;
#X obj 113 340 float;
#X obj 119 366 t b f;
#X obj 123 185 float;
#X floatatom 146 211 5 0 0 0 - - -;
#X msg 117 -28 0;
#X msg 156 -26 1;
#X msg 198 -17 2;
#X obj 87 10 float;
#X obj 87 32 sel 0 1 2;
#X obj 348 -96 r rampDown-\$1;
#X obj 35 -112 r tickBang;
#X obj 244 -124 r setNote-\$1;
#X obj 135 -124 r blockInput;
#X floatatom 392 486 5 0 0 0 - - -;
#X floatatom 4 439 5 0 0 0 - - -;
#X obj 154 647 outlet~;
#X text -20 380 ramp down;
#X text 427 363 next note (gliss);
#X text 154 342 next note (ramping up);
#X text 20 57 block input stops flow here;
#X text 104 153 input either goes to ramping \, or to changing (gliss)
;
#X msg 4 397 0 100;
#X msg 113 395 1 30;
#X msg 420 424 150;
#N canvas 187 279 582 568 phat_phaze 1;
#X obj 113 206 +~;
#X obj 113 287 outlet~;
#X obj 60 137 phasor~ 55;
#X obj 146 136 phasor~ 55;
#X obj 112 55 inlet pitch;
#X obj 112 234 bp~ 630 3;
#X obj 112 258 hip~ 60;
#X obj 61 165 -~ 0.5;
#X obj 147 164 -~ 0.5;
#X obj 140 94 + 0.1;
#X obj 82 90 - 0.1;
#X connect 0 0 5 0;
#X connect 2 0 7 0;
#X connect 3 0 8 0;
#X connect 4 0 9 0;
#X connect 4 0 10 0;
#X connect 5 0 6 0;
#X connect 6 0 1 0;
#X connect 7 0 0 0;
#X connect 8 0 0 1;
#X connect 9 0 3 0;
#X connect 10 0 2 0;
#X restore 191 518 pd phat_phaze;
#X obj 154 620 *~ 0.1;
#X connect 0 0 2 0;
#X connect 0 0 4 1;
#X connect 0 0 9 1;
#X connect 3 0 1 0;
#X connect 3 0 22 0;
#X connect 3 0 33 0;
#X connect 4 0 5 0;
#X connect 5 0 3 0;
#X connect 5 1 32 0;
#X connect 6 0 34 0;
#X connect 7 0 6 0;
#X connect 8 0 9 0;
#X connect 8 1 4 0;
#X connect 9 0 10 0;
#X connect 10 0 31 0;
#X connect 10 1 3 0;
#X connect 11 0 12 0;
#X connect 11 0 8 0;
#X connect 13 0 16 1;
#X connect 14 0 16 1;
#X connect 15 0 16 1;
#X connect 16 0 17 0;
#X connect 17 1 11 0;
#X connect 17 2 30 0;
#X connect 18 0 15 0;
#X connect 19 0 16 0;
#X connect 20 0 14 0;
#X connect 20 0 0 0;
#X connect 21 0 13 0;
#X connect 23 0 11 1;
#X connect 30 0 7 0;
#X connect 30 0 23 0;
#X connect 31 0 7 0;
#X connect 31 0 23 0;
#X connect 32 0 3 1;
#X connect 33 0 6 1;
#X connect 34 0 24 0;
