#N canvas 945 54 457 713 10;
#X floatatom 166 -54 5 0 0 0 - - -;
#X obj 166 -35 mtof;
#X obj 139 128 osc~ 220;
#X floatatom 210 -17 5 0 0 0 - - -;
#X obj 139 106 line;
#X obj 139 29 float;
#X obj 139 55 t f b;
#X msg 166 81 150;
#X obj 74 209 dac~;
#X obj 74 154 *~;
#X obj 74 180 *~ 0.2;
#X msg 32 85 1 30;
#X obj 74 117 line~;
#X obj 74 -2 sel 0 1;
#X obj 74 31 float;
#X obj 74 57 t b f;
#X msg -13 85 0 100;
#X obj 74 -44 float;
#X floatatom 90 -22 5 0 0 0 - - -;
#X obj 84 -119 hradio 15 1 0 3 empty empty empty 0 -8 0 10 -262144
-1 -1 1;
#X msg 84 -152 0;
#X msg 166 -151 1;
#X msg 247 -152 2;
#X obj 57 -100 float;
#X obj 57 -77 sel 0 1 2;
#X obj 247 -177 r rampDown-\$1;
#X obj 15 -177 r tickBang;
#X obj 166 -176 r setNote-\$1;
#X obj 84 -177 r blockInput;
#X floatatom 250 140 5 0 0 0 - - -;
#X obj 3 -77 bng 15 250 50 0 empty empty empty 17 7 0 10 -262144 -1
-1;
#X floatatom -13 114 5 0 0 0 - - -;
#X connect 0 0 1 0;
#X connect 1 0 3 0;
#X connect 1 0 5 1;
#X connect 1 0 14 1;
#X connect 2 0 9 1;
#X connect 4 0 2 0;
#X connect 4 0 29 0;
#X connect 5 0 6 0;
#X connect 6 0 4 0;
#X connect 6 1 7 0;
#X connect 7 0 4 1;
#X connect 9 0 10 0;
#X connect 10 0 8 0;
#X connect 10 0 8 1;
#X connect 11 0 12 0;
#X connect 11 0 31 0;
#X connect 12 0 9 0;
#X connect 13 0 14 0;
#X connect 13 1 5 0;
#X connect 14 0 15 0;
#X connect 15 0 11 0;
#X connect 15 1 2 0;
#X connect 16 0 12 0;
#X connect 16 0 31 0;
#X connect 17 0 18 0;
#X connect 17 0 13 0;
#X connect 19 0 23 1;
#X connect 20 0 19 0;
#X connect 21 0 19 0;
#X connect 22 0 19 0;
#X connect 23 0 24 0;
#X connect 24 1 17 0;
#X connect 25 0 22 0;
#X connect 26 0 23 0;
#X connect 27 0 21 0;
#X connect 27 0 0 0;
#X connect 28 0 20 0;
#X connect 30 0 17 0;
#X connect 31 0 17 1;
