#N canvas 77 425 549 406 10;
#X floatatom 146 -32 5 0 0 0 - - -;
#X obj 146 -13 mtof;
#X obj 119 -65 r tickBang;
#X obj 119 111 osc~ 220;
#X obj 185 118 r audioStream;
#X floatatom 190 4 5 0 0 0 - - -;
#X obj 119 89 line;
#X obj 119 12 float;
#X obj 119 38 t f b;
#X msg 146 64 150;
#X obj 104 159 dac~;
#X obj 189 -65 r setNote;
#X obj -41 100 vline~;
#X obj 104 135 *~;
#X msg -1 70 1 30;
#X text 18 -111;
#X obj -41 28 r synthRampDown;
#X obj -1 47 r synthRampUp;
#X msg -41 70 0 100;
#X connect 0 0 1 0;
#X connect 1 0 5 0;
#X connect 1 0 7 1;
#X connect 2 0 7 0;
#X connect 3 0 13 1;
#X connect 4 0 13 1;
#X connect 6 0 3 0;
#X connect 7 0 8 0;
#X connect 8 0 6 0;
#X connect 8 1 9 0;
#X connect 9 0 6 1;
#X connect 11 0 0 0;
#X connect 12 0 13 0;
#X connect 13 0 10 0;
#X connect 13 0 10 1;
#X connect 14 0 12 0;
#X connect 16 0 18 0;
#X connect 17 0 14 0;
#X connect 18 0 12 0;
