#N canvas 203 299 585 430 10;
#X text -91 16 (table_name);
#X obj -148 224 hip~ 5;
#X obj -148 277 dac~;
#X obj -92 232 r audioStream;
#X obj -148 249 *~ 1;
#X obj -148 172 spigot;
#X obj -44 108 r offSwitch;
#X obj -217 66 r tickBang;
#X msg -91 63 1;
#X obj 125 172 soundfiler;
#X floatatom 125 195 5 0 0 0 - - -;
#X text 123 67 incoming file name \, sample number;
#X text 81 274 loaded sample;
#X obj 125 87 r loadSample_\$1;
#X msg 125 150 read -resize \$1 sample\$2;
#X obj 84 293 table sample_\$1;
#X obj 152 125 print incoming load sample;
#X obj -91 35 r stageSample_\$1;
#X obj -44 143 tgl 15 0 empty empty empty 17 7 0 10 -262144 -1 -1 1
1;
#X obj -44 80 print stage;
#X obj -148 197 tabplay~ sample_\$1;
#X text -23 141 <- staged to play;
#X text -218 45 trigger sample;
#X connect 1 0 4 0;
#X connect 3 0 4 1;
#X connect 4 0 2 0;
#X connect 4 0 2 1;
#X connect 5 0 20 0;
#X connect 6 0 5 1;
#X connect 6 0 18 0;
#X connect 7 0 5 0;
#X connect 8 0 5 1;
#X connect 8 0 18 0;
#X connect 8 0 19 0;
#X connect 9 0 10 0;
#X connect 13 0 14 0;
#X connect 13 0 16 0;
#X connect 14 0 9 0;
#X connect 17 0 8 0;
#X connect 20 0 1 0;
