#N canvas 147 76 1086 594 10;
#X obj 353 16 r trigger;
#X msg 306 133 1 10 \, 0 1000 10;
#X obj 335 158 vline~;
#X obj 335 193 *~;
#X obj 335 229 dac~;
#X floatatom 440 126 5 0 0 0 - - -;
#X obj 425 145 mtof;
#X obj 383 169 osc~ 220;
#X obj 588 18 r midinote;
#X obj 144 190 *~;
#X obj 144 213 *~ 0.1;
#X obj 144 243 dac~;
#X obj 144 162 vline~;
#X obj 193 174 noise~;
#X msg 112 135 1 10 \, 0 200 10;
#X obj 323 18 bng 15 250 50 0 empty empty empty 17 7 0 10 -262144 -1
-1;
#X obj 306 108 spigot;
#X floatatom 228 43 0 0 0 0 - - -;
#X obj 228 18 r clear;
#X obj 112 110 spigot;
#X obj 475 17 r activateTone;
#X obj 51 17 r activateNoise;
#X obj 27 19 bng 15 250 50 0 empty empty empty 17 7 0 10 -262144 -1
-1;
#X obj 205 19 bng 15 250 50 0 empty empty empty 17 7 0 10 -262144 -1
-1;
#X obj 449 19 bng 15 250 50 0 empty empty empty 17 7 0 10 -262144 -1
-1;
#X msg 51 42 1;
#X msg 475 43 1;
#X obj 542 382 loadbang;
#X obj 542 484 soundfiler;
#N canvas 0 22 450 278 (subpatch) 0;
#X array pattern1 44100 float 2;
#X coords 0 1 44100 -1 200 140 1;
#X restore 761 216 graph;
#X floatatom 542 510 8 0 0 0 - - -;
#X obj 28 334 bng 15 250 50 0 empty empty empty 17 7 0 10 -262144 -1
-1;
#X obj 32 447 tabplay~ pattern1;
#X obj 32 500 hip~ 5;
#X obj 32 535 dac~;
#N canvas 0 22 450 278 (subpatch) 0;
#X array pattern2 44100 float 2;
#X coords 0 1 44100 -1 200 140 1;
#X restore 760 389 graph;
#X obj 47 333 r d1;
#X obj 151 446 tabplay~ pattern2;
#X msg 542 410 read -resize d1.wav pattern1;
#X msg 555 433 read -resize d2.wav pattern2;
#X obj 151 393 spigot;
#X obj 32 394 spigot;
#X msg 47 356 1;
#X obj 124 334 bng 15 250 50 0 empty empty empty 17 7 0 10 -262144
-1 -1;
#X msg 143 356 1;
#X obj 143 333 r d2;
#X msg 353 41 bang;
#X connect 0 0 46 0;
#X connect 1 0 2 0;
#X connect 2 0 3 0;
#X connect 3 0 4 0;
#X connect 3 0 4 1;
#X connect 5 0 6 0;
#X connect 6 0 7 0;
#X connect 7 0 3 1;
#X connect 8 0 5 0;
#X connect 9 0 10 0;
#X connect 10 0 11 0;
#X connect 10 0 11 1;
#X connect 12 0 9 0;
#X connect 13 0 9 1;
#X connect 14 0 12 0;
#X connect 15 0 46 0;
#X connect 16 0 1 0;
#X connect 17 0 16 1;
#X connect 17 0 19 1;
#X connect 17 0 41 1;
#X connect 17 0 40 1;
#X connect 18 0 17 0;
#X connect 19 0 14 0;
#X connect 20 0 26 0;
#X connect 21 0 25 0;
#X connect 22 0 25 0;
#X connect 23 0 17 0;
#X connect 24 0 26 0;
#X connect 25 0 19 1;
#X connect 26 0 16 1;
#X connect 27 0 38 0;
#X connect 27 0 39 0;
#X connect 28 0 30 0;
#X connect 31 0 42 0;
#X connect 32 0 33 0;
#X connect 33 0 34 0;
#X connect 33 0 34 1;
#X connect 36 0 42 0;
#X connect 37 0 33 0;
#X connect 38 0 28 0;
#X connect 39 0 28 0;
#X connect 40 0 37 0;
#X connect 41 0 32 0;
#X connect 42 0 41 1;
#X connect 43 0 44 0;
#X connect 44 0 40 1;
#X connect 45 0 44 0;
#X connect 46 0 19 0;
#X connect 46 0 16 0;
#X connect 46 0 41 0;
#X connect 46 0 40 0;
