#N canvas 0 22 1440 852 10;
#X obj 161 52 r trigger;
#X msg 349 282 1 10 \, 0 1000 10;
#X obj 349 308 vline~;
#X obj 349 358 *~;
#X obj 349 391 dac~;
#X floatatom 556 252 5 0 0 0 - - -;
#X obj 556 271 mtof;
#X obj 556 226 r midinote;
#X obj 70 370 *~;
#X obj 70 393 *~ 0.1;
#X obj 70 423 dac~;
#X obj 70 314 vline~;
#X obj 192 277 noise~;
#X msg 70 284 1 10 \, 0 200 10;
#X obj 142 52 bng 15 250 50 0 empty empty empty 17 7 0 10 -262144 -1
-1;
#X obj 349 255 spigot;
#X obj 35 52 r clear;
#X obj 70 255 spigot;
#X obj 467 52 r activateTone;
#X obj 306 52 r activateNoise;
#X obj 286 53 bng 15 250 50 0 empty empty empty 17 7 0 10 -262144 -1
-1;
#X obj 17 52 bng 15 250 50 0 empty empty empty 17 7 0 10 -262144 -1
-1;
#X obj 446 53 bng 15 250 50 0 empty empty empty 17 7 0 10 -262144 -1
-1;
#X msg 306 79 1;
#X msg 467 79 1;
#X obj 32 464 loadbang;
#X obj 32 657 soundfiler;
#N canvas 0 22 450 278 (subpatch) 0;
#X array d1 22050 float 2;
#X coords 0 1 22050 -1 200 140 1 0 0;
#X restore 266 558 graph;
#X floatatom 32 683 8 0 0 0 - - -;
#X obj 589 53 bng 15 250 50 0 empty empty empty 17 7 0 10 -262144 -1
-1;
#X obj 704 345 hip~ 5;
#X obj 704 422 dac~;
#N canvas 0 22 450 278 (subpatch) 0;
#X array d2 22050 float 2;
#X coords 0 1 22050 -1 200 140 1 0 0;
#X restore 468 559 graph;
#X obj 704 256 spigot;
#X msg 611 80 1;
#X msg 718 286 set \$1;
#X obj 611 53 r activateDrum;
#X obj 704 318 tabplay~;
#X msg 764 54 symbol d1;
#X msg 765 74 symbol d2;
#X msg 32 521 read -resize d1.wav d1;
#X msg 48 540 read -resize d2.wav d2;
#X obj 844 51 r selectDrum;
#X obj 774 225 r offSwitch;
#X obj 141 227 r offSwitch;
#X obj 35 107 s offSwitch;
#X msg 35 79 0;
#X obj 417 226 r offSwitch;
#X obj 161 79 s tickBang;
#X obj 70 227 r tickBang;
#X obj 349 226 r tickBang;
#X obj 704 225 r tickBang;
#X obj 906 225 r drumSymbol;
#X obj 844 74 s drumSymbol;
#X obj 306 107 s noiseOn;
#X obj 467 103 s toneOn;
#X obj 611 105 s drumOn;
#X obj 491 226 r toneOn;
#X obj 215 227 r noiseOn;
#X obj 849 225 r drumOn;
#N canvas 0 22 450 278 (subpatch) 0;
#X array d3 22050 float 2;
#X coords 0 1 22050 -1 200 140 1 0 0;
#X restore 671 558 graph;
#N canvas 0 22 450 278 (subpatch) 0;
#X array d4 22050 float 2;
#X coords 0 1 22050 -1 200 140 1 0 0;
#X restore 878 560 graph;
#X msg 63 560 read -resize d3.wav d3;
#X msg 78 580 read -resize d4.wav d4;
#X msg 765 94 symbol d3;
#X msg 765 114 symbol d4;
#X obj 556 338 *~;
#X obj 556 295 osc~ 220;
#X obj 1029 54 r mute;
#X obj 1029 77 s audioStream;
#X obj 571 317 r audioStream;
#X msg 966 54 0;
#X msg 996 54 1;
#X obj 192 320 *~;
#X obj 207 299 r audioStream;
#X obj 704 386 *~;
#X obj 719 365 r audioStream;
#X obj 1030 121 r audioStream;
#X floatatom 1030 187 5 0 0 0 - - -;
#X text 1071 188 <- is muted;
#X obj 1030 143 sel 0;
#X msg 1060 164 0;
#X msg 1030 164 1;
#X obj 996 32 loadbang;
#X connect 0 0 48 0;
#X connect 1 0 2 0;
#X connect 2 0 3 0;
#X connect 3 0 4 0;
#X connect 3 0 4 1;
#X connect 5 0 6 0;
#X connect 6 0 67 0;
#X connect 7 0 5 0;
#X connect 8 0 9 0;
#X connect 9 0 10 0;
#X connect 9 0 10 1;
#X connect 11 0 8 0;
#X connect 12 0 73 0;
#X connect 13 0 11 0;
#X connect 14 0 48 0;
#X connect 15 0 1 0;
#X connect 16 0 46 0;
#X connect 17 0 13 0;
#X connect 18 0 24 0;
#X connect 19 0 23 0;
#X connect 20 0 23 0;
#X connect 21 0 46 0;
#X connect 22 0 24 0;
#X connect 23 0 54 0;
#X connect 24 0 55 0;
#X connect 25 0 40 0;
#X connect 25 0 41 0;
#X connect 25 0 62 0;
#X connect 25 0 63 0;
#X connect 26 0 28 0;
#X connect 29 0 34 0;
#X connect 30 0 75 0;
#X connect 33 0 37 0;
#X connect 34 0 56 0;
#X connect 35 0 37 0;
#X connect 36 0 34 0;
#X connect 37 0 30 0;
#X connect 38 0 53 0;
#X connect 39 0 53 0;
#X connect 40 0 26 0;
#X connect 41 0 26 0;
#X connect 42 0 53 0;
#X connect 43 0 33 1;
#X connect 44 0 17 1;
#X connect 46 0 45 0;
#X connect 47 0 15 1;
#X connect 49 0 17 0;
#X connect 50 0 15 0;
#X connect 51 0 33 0;
#X connect 52 0 35 0;
#X connect 57 0 15 1;
#X connect 58 0 17 1;
#X connect 59 0 33 1;
#X connect 62 0 26 0;
#X connect 63 0 26 0;
#X connect 64 0 53 0;
#X connect 65 0 53 0;
#X connect 66 0 3 1;
#X connect 67 0 66 0;
#X connect 68 0 69 0;
#X connect 70 0 66 1;
#X connect 71 0 69 0;
#X connect 72 0 69 0;
#X connect 73 0 8 1;
#X connect 74 0 73 1;
#X connect 75 0 31 0;
#X connect 75 0 31 1;
#X connect 76 0 75 1;
#X connect 77 0 80 0;
#X connect 80 0 82 0;
#X connect 80 1 81 0;
#X connect 81 0 78 0;
#X connect 82 0 78 0;
#X connect 83 0 72 0;
