#N canvas 46 71 1367 765 10;
#X obj 483 -42 r trigger;
#X floatatom 617 498 5 0 0 0 - - -;
#X obj 617 517 mtof;
#X obj 591 321 *~;
#X obj 591 344 *~ 0.1;
#X obj 591 374 dac~;
#X obj 591 254 vline~;
#X obj 606 276 noise~;
#X msg 591 224 1 10 \, 0 200 10;
#X obj 466 -41 bng 15 250 50 0 empty empty empty 17 7 0 10 -262144
-1 -1;
#X obj 589 469 spigot;
#X obj 397 -42 r clear;
#X obj 591 195 spigot;
#X obj 729 -41 r activateTone;
#X obj 587 -42 r activateNoise;
#X obj 570 -41 bng 15 250 50 0 empty empty empty 17 7 0 10 -262144
-1 -1;
#X obj 380 -42 bng 15 250 50 0 empty empty empty 17 7 0 10 -262144
-1 -1;
#X obj 711 -40 bng 15 250 50 0 empty empty empty 17 7 0 10 -262144
-1 -1;
#X msg 587 -15 1;
#X msg 729 -14 1;
#X obj 25 -41 loadbang;
#X obj 25 92 soundfiler;
#X floatatom 25 118 8 0 0 0 - - -;
#X obj 1067 -37 bng 15 250 50 0 empty empty empty 17 7 0 10 -262144
-1 -1;
#X obj 899 287 hip~ 5;
#X obj 899 362 dac~;
#X obj 899 198 spigot;
#X msg 1086 -10 1;
#X msg 1101 188 set \$1;
#X obj 1086 -37 r activateDrum;
#X obj 899 260 tabplay~;
#X msg 1235 -13 symbol d1;
#X msg 1235 7 symbol d2;
#X msg 25 6 read -resize d1.wav d1;
#X msg 31 25 read -resize d2.wav d2;
#X obj 1204 -36 r selectDrum;
#X obj 969 167 r offSwitch;
#X obj 662 167 r offSwitch;
#X obj 397 13 s offSwitch;
#X msg 397 -15 0;
#X obj 657 437 r offSwitch;
#X obj 483 -15 s tickBang;
#X obj 591 167 r tickBang;
#X obj 589 437 r tickBang;
#X obj 899 167 r tickBang;
#X obj 1101 167 r drumSymbol;
#X obj 1204 71 s drumSymbol;
#X obj 587 13 s noiseOn;
#X obj 729 11 s toneOn;
#X obj 1086 15 s drumOn;
#X obj 734 437 r toneOn;
#X obj 736 167 r noiseOn;
#X obj 1044 167 r drumOn;
#X msg 36 45 read -resize d3.wav d3;
#X msg 41 65 read -resize d4.wav d4;
#X msg 1235 27 symbol d3;
#X msg 1235 47 symbol d4;
#X obj 590 633 osc~ 220;
#X obj 301 -42 r mute;
#X obj 302 12 s audioStream;
#X obj 669 643 r audioStream;
#X msg 246 -42 0;
#X msg 273 -42 1;
#X obj 606 298 *~;
#X obj 718 281 r audioStream;
#X obj 899 334 *~;
#X obj 1037 317 r audioStream;
#X obj 302 38 r audioStream;
#X floatatom 302 104 5 0 0 0 - - -;
#X text 343 105 <- is muted;
#X obj 302 60 sel 0;
#X msg 332 81 0;
#X msg 302 81 1;
#X obj 130 282 r graphValue;
#X obj 130 257 s graphValue;
#X floatatom 130 234 10 0 0 0 - - -;
#X floatatom 130 303 5 0 0 0 - - -;
#X obj 213 282 r readFromArray;
#X floatatom 130 355 5 0 0 0 - - -;
#X obj 213 258 s readFromArray;
#X obj 320 299 print;
#X msg 213 303 set \$1;
#X msg 213 234 symbol d3;
#X obj 130 333 tabread;
#X floatatom 848 32 5 0 0 0 - - -;
#X obj 848 8 + 48;
#X floatatom 661 534 5 0 0 0 - - -;
#X obj 590 611 line;
#X obj 590 542 float;
#X obj 590 568 t f b;
#X msg 617 589 150;
#X obj 590 683 dac~;
#X obj 590 659 *~ 0.5;
#X obj 848 -40 r midinote;
#X obj 848 -16 hradio 15 1 0 12 empty empty empty 0 -8 0 10 -262144
-1 -1 3;
#X obj 848 54 s setNote;
#X obj 795 437 r setNote;
#X text 937 -39 pick note;
#X text 147 168 really don't need this part because we can load in
arrays from libpd;
#X text 588 142 noise machine;
#X text 894 140 sample player;
#X text 588 416 synthesizer;
#X obj 26 233 table d1 22050;
#X obj 26 253 table d2 22050;
#X obj 26 273 table d3 22050;
#X obj 26 293 table d4 22050;
#X obj 25 -17 bng 15 250 50 0 empty empty empty 17 7 0 10 -262144 -1
-1;
#X text 45 -17 tap to reload;
#X connect 0 0 41 0;
#X connect 1 0 2 0;
#X connect 2 0 86 0;
#X connect 2 0 88 1;
#X connect 3 0 4 0;
#X connect 4 0 5 0;
#X connect 4 0 5 1;
#X connect 6 0 3 0;
#X connect 7 0 63 0;
#X connect 8 0 6 0;
#X connect 9 0 41 0;
#X connect 10 0 88 0;
#X connect 11 0 39 0;
#X connect 12 0 8 0;
#X connect 13 0 19 0;
#X connect 14 0 18 0;
#X connect 15 0 18 0;
#X connect 16 0 39 0;
#X connect 17 0 19 0;
#X connect 18 0 47 0;
#X connect 19 0 48 0;
#X connect 20 0 106 0;
#X connect 21 0 22 0;
#X connect 23 0 27 0;
#X connect 24 0 65 0;
#X connect 26 0 30 0;
#X connect 27 0 49 0;
#X connect 28 0 30 0;
#X connect 29 0 27 0;
#X connect 30 0 24 0;
#X connect 31 0 46 0;
#X connect 32 0 46 0;
#X connect 33 0 21 0;
#X connect 34 0 21 0;
#X connect 35 0 46 0;
#X connect 36 0 26 1;
#X connect 37 0 12 1;
#X connect 39 0 38 0;
#X connect 40 0 10 1;
#X connect 42 0 12 0;
#X connect 43 0 10 0;
#X connect 44 0 26 0;
#X connect 45 0 28 0;
#X connect 50 0 10 1;
#X connect 51 0 12 1;
#X connect 52 0 26 1;
#X connect 53 0 21 0;
#X connect 54 0 21 0;
#X connect 55 0 46 0;
#X connect 56 0 46 0;
#X connect 57 0 92 0;
#X connect 58 0 59 0;
#X connect 60 0 92 1;
#X connect 61 0 59 0;
#X connect 62 0 59 0;
#X connect 63 0 3 1;
#X connect 64 0 63 1;
#X connect 65 0 25 0;
#X connect 65 0 25 1;
#X connect 66 0 65 1;
#X connect 67 0 70 0;
#X connect 70 0 72 0;
#X connect 70 1 71 0;
#X connect 71 0 68 0;
#X connect 72 0 68 0;
#X connect 73 0 76 0;
#X connect 75 0 74 0;
#X connect 76 0 83 0;
#X connect 77 0 81 0;
#X connect 77 0 80 0;
#X connect 81 0 83 0;
#X connect 82 0 79 0;
#X connect 83 0 78 0;
#X connect 84 0 95 0;
#X connect 85 0 84 0;
#X connect 87 0 57 0;
#X connect 88 0 89 0;
#X connect 89 0 87 0;
#X connect 89 1 90 0;
#X connect 90 0 87 1;
#X connect 92 0 91 0;
#X connect 92 0 91 1;
#X connect 93 0 94 0;
#X connect 94 0 85 0;
#X connect 96 0 1 0;
#X connect 106 0 33 0;
#X connect 106 0 34 0;
#X connect 106 0 53 0;
#X connect 106 0 54 0;
