#N canvas 73 62 1359 709 10;
#X obj 321 -18 r trigger;
#X floatatom 909 179 5 0 0 0 - - -;
#X obj 909 198 mtof;
#X obj 909 154 r midinote;
#X obj 466 273 *~;
#X obj 466 296 *~ 0.1;
#X obj 466 326 dac~;
#X obj 466 216 vline~;
#X obj 591 176 noise~;
#X msg 466 186 1 10 \, 0 200 10;
#X obj 302 -18 bng 15 250 50 0 empty empty empty 17 7 0 10 -262144
-1 -1;
#X obj 767 179 spigot;
#X obj 235 -18 r clear;
#X obj 466 157 spigot;
#X obj 767 30 r activateTone;
#X obj 466 31 r activateNoise;
#X obj 446 32 bng 15 250 50 0 empty empty empty 17 7 0 10 -262144 -1
-1;
#X obj 217 -18 bng 15 250 50 0 empty empty empty 17 7 0 10 -262144
-1 -1;
#X obj 746 31 bng 15 250 50 0 empty empty empty 17 7 0 10 -262144 -1
-1;
#X msg 466 58 1;
#X msg 767 57 1;
#X obj 59 210 loadbang;
#X obj 59 403 soundfiler;
#N canvas 294 41 916 558 (subpatch) 0;
#X array d1 22050 float 2;
#X coords 0 1 22050 -1 200 140 1 0 0;
#X restore 151 433 graph;
#X floatatom 59 429 8 0 0 0 - - -;
#X obj 1051 33 bng 15 250 50 0 empty empty empty 17 7 0 10 -262144
-1 -1;
#X obj 1073 252 hip~ 5;
#X obj 1073 327 dac~;
#N canvas 0 22 450 278 (subpatch) 0;
#X array d2 22050 float 2;
#X coords 0 1 22050 -1 200 140 1 0 0;
#X restore 353 434 graph;
#X obj 1073 163 spigot;
#X msg 1073 60 1;
#X msg 1229 176 set \$1;
#X obj 1073 33 r activateDrum;
#X obj 1073 225 tabplay~;
#X msg 1174 34 symbol d1;
#X msg 1175 54 symbol d2;
#X msg 59 267 read -resize d1.wav d1;
#X msg 75 286 read -resize d2.wav d2;
#X obj 1254 31 r selectDrum;
#X obj 1143 132 r offSwitch;
#X obj 537 129 r offSwitch;
#X obj 235 37 s offSwitch;
#X msg 235 9 0;
#X obj 835 130 r offSwitch;
#X obj 321 9 s tickBang;
#X obj 466 129 r tickBang;
#X obj 767 130 r tickBang;
#X obj 1073 132 r tickBang;
#X obj 1229 155 r drumSymbol;
#X obj 1254 54 s drumSymbol;
#X obj 466 86 s noiseOn;
#X obj 767 81 s toneOn;
#X obj 1073 85 s drumOn;
#X obj 909 130 r toneOn;
#X obj 611 129 r noiseOn;
#X obj 1218 132 r drumOn;
#N canvas 0 22 450 278 (subpatch) 0;
#X array d3 22050 float 2;
#X coords 0 1 22050 -1 200 140 1 0 0;
#X restore 556 433 graph;
#N canvas 0 22 450 278 (subpatch) 0;
#X array d4 22050 float 2;
#X coords 0 1 22050 -1 200 140 1 0 0;
#X restore 763 435 graph;
#X msg 90 306 read -resize d3.wav d3;
#X msg 105 326 read -resize d4.wav d4;
#X msg 1175 74 symbol d3;
#X msg 1175 94 symbol d4;
#X obj 832 354 *~;
#X obj 832 311 osc~ 220;
#X obj 94 54 r mute;
#X obj 94 77 s audioStream;
#X obj 847 333 r audioStream;
#X msg 31 54 0;
#X msg 61 54 1;
#X obj 591 219 *~;
#X obj 606 197 r audioStream;
#X obj 1073 299 *~;
#X obj 1088 272 r audioStream;
#X obj 94 103 r audioStream;
#X floatatom 94 169 5 0 0 0 - - -;
#X text 135 170 <- is muted;
#X obj 94 125 sel 0;
#X msg 124 146 0;
#X msg 94 146 1;
#X obj 61 32 loadbang;
#X obj 976 499 r graphValue;
#X obj 976 470 s graphValue;
#X floatatom 976 447 10 0 0 0 - - -;
#X floatatom 976 526 5 0 0 0 - - -;
#X obj 1059 499 r readFromArray;
#X floatatom 976 572 5 0 0 0 - - -;
#X obj 1068 471 s readFromArray;
#X obj 1160 516 print;
#X msg 1059 520 set \$1;
#X msg 1068 447 symbol d3;
#X obj 976 548 tabread;
#X obj 986 -43 vradio 15 1 0 12 empty empty empty 0 -8 0 10 -262144
-1 -1 0;
#X floatatom 986 165 5 0 0 0 - - -;
#X obj 986 141 + 48;
#X text 902 -5 pick note ->;
#X floatatom 953 215 5 0 0 0 - - -;
#X obj 832 288 line;
#X obj 832 219 float;
#X obj 832 245 t f b;
#X msg 859 265 150;
#X obj 832 381 dac~;
#X msg 633 830 1 10 \, 0 1000 10;
#X obj 633 856 vline~;
#X obj 633 925 *~;
#X obj 633 952 dac~;
#X floatatom 775 803 5 0 0 0 - - -;
#X obj 775 822 mtof;
#X obj 775 778 r midinote;
#X obj 633 803 spigot;
#X obj 633 654 r activateTone;
#X obj 612 655 bng 15 250 50 0 empty empty empty 17 7 0 10 -262144
-1 -1;
#X msg 633 681 1;
#X obj 701 754 r offSwitch;
#X obj 633 754 r tickBang;
#X obj 633 705 s toneOn;
#X obj 775 754 r toneOn;
#X obj 699 942 *~;
#X obj 699 899 osc~ 220;
#X obj 714 921 r audioStream;
#X obj 852 581 vradio 15 1 0 12 empty empty empty 0 -8 0 10 -262144
-1 -1 0;
#X floatatom 852 789 5 0 0 0 - - -;
#X obj 852 765 + 48;
#X text 768 619 pick note ->;
#X floatatom 819 839 5 0 0 0 - - -;
#X obj 113 97 mtof;
#X obj 113 150 osc~ 220;
#X obj 113 -165 vradio 15 1 0 12 empty empty empty 0 -8 0 10 -262144
-1 -1 0;
#X floatatom 113 77 5 0 0 0 - - -;
#X obj 113 54 + 48;
#X text 29 -126 pick note ->;
#X msg 210 176 0;
#X obj 113 122 line;
#X obj 113 22 t f b;
#X msg 155 97 150;
#X text 137 -165 1;
#X text 135 -29 3;
#X text 136 -86 2 \, 4;
#X text 138 -132 5;
#X text 137 -102 6;
#X text 158 -132 7;
#X text 138 -149 8;
#X msg 210 151 0.1;
#X obj 113 193 *~;
#X text 208 131 on / off;
#X obj 113 97 mtof;
#X obj 113 150 osc~ 220;
#X obj 113 -165 vradio 15 1 0 12 empty empty empty 0 -8 0 10 -262144
-1 -1 0;
#X floatatom 113 77 5 0 0 0 - - -;
#X obj 113 54 + 48;
#X text 29 -126 pick note ->;
#X msg 210 176 0;
#X obj 113 122 line;
#X obj 113 22 t f b;
#X msg 155 97 150;
#X text 137 -165 1;
#X text 135 -29 3;
#X text 136 -86 2 \, 4;
#X text 138 -132 5;
#X text 137 -102 6;
#X text 158 -132 7;
#X text 138 -149 8;
#X msg 210 151 0.1;
#X obj 113 193 *~;
#X text 208 131 on / off;
#X connect 0 0 44 0;
#X connect 1 0 2 0;
#X connect 2 0 95 0;
#X connect 2 0 97 1;
#X connect 3 0 1 0;
#X connect 4 0 5 0;
#X connect 5 0 6 0;
#X connect 5 0 6 1;
#X connect 7 0 4 0;
#X connect 8 0 69 0;
#X connect 9 0 7 0;
#X connect 10 0 44 0;
#X connect 11 0 97 0;
#X connect 12 0 42 0;
#X connect 13 0 9 0;
#X connect 14 0 20 0;
#X connect 15 0 19 0;
#X connect 16 0 19 0;
#X connect 17 0 42 0;
#X connect 18 0 20 0;
#X connect 19 0 50 0;
#X connect 20 0 51 0;
#X connect 21 0 36 0;
#X connect 21 0 37 0;
#X connect 21 0 58 0;
#X connect 21 0 59 0;
#X connect 22 0 24 0;
#X connect 25 0 30 0;
#X connect 26 0 71 0;
#X connect 29 0 33 0;
#X connect 30 0 52 0;
#X connect 31 0 33 0;
#X connect 32 0 30 0;
#X connect 33 0 26 0;
#X connect 34 0 49 0;
#X connect 35 0 49 0;
#X connect 36 0 22 0;
#X connect 37 0 22 0;
#X connect 38 0 49 0;
#X connect 39 0 29 1;
#X connect 40 0 13 1;
#X connect 42 0 41 0;
#X connect 43 0 11 1;
#X connect 45 0 13 0;
#X connect 46 0 11 0;
#X connect 47 0 29 0;
#X connect 48 0 31 0;
#X connect 53 0 11 1;
#X connect 54 0 13 1;
#X connect 55 0 29 1;
#X connect 58 0 22 0;
#X connect 59 0 22 0;
#X connect 60 0 49 0;
#X connect 61 0 49 0;
#X connect 62 0 100 0;
#X connect 62 0 100 1;
#X connect 63 0 62 0;
#X connect 64 0 65 0;
#X connect 66 0 62 1;
#X connect 67 0 65 0;
#X connect 68 0 65 0;
#X connect 69 0 4 1;
#X connect 70 0 69 1;
#X connect 71 0 27 0;
#X connect 71 0 27 1;
#X connect 72 0 71 1;
#X connect 73 0 76 0;
#X connect 76 0 78 0;
#X connect 76 1 77 0;
#X connect 77 0 74 0;
#X connect 78 0 74 0;
#X connect 79 0 68 0;
#X connect 80 0 83 0;
#X connect 82 0 81 0;
#X connect 83 0 90 0;
#X connect 84 0 88 0;
#X connect 84 0 87 0;
#X connect 88 0 90 0;
#X connect 89 0 86 0;
#X connect 90 0 85 0;
#X connect 91 0 93 0;
#X connect 92 0 1 0;
#X connect 93 0 92 0;
#X connect 96 0 63 0;
#X connect 97 0 98 0;
#X connect 98 0 96 0;
#X connect 98 1 99 0;
#X connect 99 0 96 1;
#X connect 101 0 102 0;
#X connect 102 0 103 0;
#X connect 103 0 104 0;
#X connect 103 0 104 1;
#X connect 105 0 106 0;
#X connect 106 0 117 0;
#X connect 106 0 123 0;
#X connect 107 0 105 0;
#X connect 108 0 101 0;
#X connect 109 0 111 0;
#X connect 110 0 111 0;
#X connect 111 0 114 0;
#X connect 112 0 108 1;
#X connect 113 0 108 0;
#X connect 115 0 108 1;
#X connect 116 0 103 1;
#X connect 117 0 116 0;
#X connect 118 0 116 1;
#X connect 119 0 121 0;
#X connect 120 0 105 0;
#X connect 121 0 120 0;
#X connect 124 0 131 0;
#X connect 125 0 142 0;
#X connect 126 0 132 0;
#X connect 127 0 124 0;
#X connect 128 0 127 0;
#X connect 130 0 142 1;
#X connect 131 0 125 0;
#X connect 132 0 128 0;
#X connect 132 1 133 0;
#X connect 133 0 131 1;
#X connect 141 0 142 1;
#X connect 144 0 151 0;
#X connect 145 0 162 0;
#X connect 146 0 152 0;
#X connect 147 0 144 0;
#X connect 148 0 147 0;
#X connect 150 0 162 1;
#X connect 151 0 145 0;
#X connect 152 0 148 0;
#X connect 152 1 153 0;
#X connect 153 0 151 1;
#X connect 161 0 162 1;
